<?xml version="1.0" encoding="utf-8"?>
<!-- Generator: Adobe Illustrator 25.4.1, SVG Export Plug-In . SVG Version: 6.00 Build 0)  -->
<svg version="1.1" id="palomino" xmlns="http://www.w3.org/2000/svg" xmlns:xlink="http://www.w3.org/1999/xlink" x="0px" y="0px"
	 viewBox="0 0 312.9 324.2" style="enable-background:new 0 0 312.9 324.2;" xml:space="preserve">
<style type="text/css">
	.st0{fill:#115DAF;}
	.st1{fill:#FFFFFF;stroke:#2D9ADC;stroke-width:6;stroke-linecap:round;stroke-linejoin:round;stroke-miterlimit:10;}
	.st2{fill:none;stroke:#2D9ADC;stroke-width:6;stroke-linecap:square;stroke-linejoin:round;stroke-miterlimit:10;}
</style>
<g>
	<path class="st0" d="M35.2,153H28c-5,0-9.2-2.1-12.7-6.3c-3.5-4.2-5.3-9.3-5.3-15.3c0-6,1.8-11,5.3-15.3c3.5-4.2,7.8-6.3,12.7-6.3
		h7.2V153z M28,145.8V117c-3,0-5.5,1.4-7.6,4.2c-2.1,2.8-3.2,6.2-3.2,10.2c0,4,1.1,7.4,3.2,10.2C22.5,144.4,25,145.8,28,145.8z"/>
	<path class="st0" d="M56.8,153c-5,0-9.2-2.1-12.7-6.3c-3.5-4.2-5.3-9.3-5.3-15.3c0-6,1.8-11,5.3-15.3c3.5-4.2,7.8-6.3,12.7-6.3v7.2
		c-3,0-5.5,1.4-7.6,4.2c-2.1,2.8-3.2,6.2-3.2,10.2c0,4,1.1,7.4,3.2,10.2c2.1,2.8,4.7,4.2,7.6,4.2V153z"/>
	<path class="st0" d="M103.6,153h-7.2v-21.6c0-4-1.1-7.4-3.2-10.2c-2.1-2.8-4.7-4.2-7.6-4.2v36h-7.2v-21.6c0-4-1.1-7.4-3.2-10.2
		c-2.1-2.8-4.7-4.2-7.6-4.2v36h-7.2v-43.2h7.2c4,0,7.6,1.4,10.8,4.3v-4.3h7.2c5,0,9.2,2.1,12.7,6.3c3.5,4.2,5.3,9.3,5.3,15.3V153z"
		/>
	<path class="st0" d="M132.4,153h-7.2c-5,0-9.2-2.1-12.7-6.3c-3.5-4.2-5.3-9.3-5.3-15.3c0-6,1.8-11,5.3-15.3
		c3.5-4.2,7.8-6.3,12.7-6.3h7.2V135h-17.6c0.6,3.1,1.8,5.7,3.8,7.7c1.9,2,4.2,3.1,6.7,3.1h7.2V153z M125.2,127.8V117
		c-2.5,0-4.7,1-6.7,3.1c-1.9,2-3.2,4.6-3.8,7.7H125.2z"/>
	<path class="st0" d="M56.2,213H49c-5,0-9.2-2.1-12.7-6.3c-3.5-4.2-5.3-9.3-5.3-15.3c0-6,1.8-11,5.3-15.3c3.5-4.2,7.8-6.3,12.7-6.3
		h7.2V213z M49,205.8V177c-3,0-5.5,1.4-7.6,4.2c-2.1,2.8-3.2,6.2-3.2,10.2c0,4,1.1,7.4,3.2,10.2C43.5,204.4,46,205.8,49,205.8z"/>
	<path class="st0" d="M67.7,162.6c0,1.2-0.4,2.2-1.3,3.1c-0.8,0.8-1.9,1.3-3.1,1.3c-1.2,0-2.2-0.4-3.1-1.3c-0.8-0.8-1.3-1.9-1.3-3.1
		c0-1.2,0.4-2.2,1.3-3.1c0.8-0.8,1.9-1.3,3.1-1.3c1.2,0,2.2,0.4,3.1,1.3C67.3,160.4,67.7,161.4,67.7,162.6z M67,213h-7.2v-43.2H67
		V213z"/>
	<path class="st0" d="M88.6,177c-3,0-5.5,1.4-7.6,4.2c-2.1,2.8-3.2,6.2-3.2,10.2V213h-7.2v-21.6c0-6,1.8-11,5.3-15.3
		c3.5-4.2,7.8-6.3,12.7-6.3V177z"/>
	<path class="st0" d="M108,213c-5,0-9.2-2.1-12.7-6.3c-3.5-4.2-5.3-9.3-5.3-15.3c0-6,1.8-11,5.3-15.3c3.5-4.2,7.8-6.3,12.7-6.3v7.2
		c-3,0-5.5,1.4-7.6,4.2c-2.1,2.8-3.2,6.2-3.2,10.2c0,4,1.1,7.4,3.2,10.2c2.1,2.8,4.7,4.2,7.6,4.2V213z"/>
	<path class="st0" d="M129.6,177c-3,0-5.5,1.4-7.6,4.2c-2.1,2.8-3.2,6.2-3.2,10.2V213h-7.2v-21.6c0-6,1.8-11,5.3-15.3
		c3.5-4.2,7.8-6.3,12.7-6.3V177z"/>
	<path class="st0" d="M154.8,213h-7.2c-5,0-9.2-2.1-12.7-6.3c-3.5-4.2-5.3-9.3-5.3-15.3c0-6,1.8-11,5.3-15.3
		c3.5-4.2,7.8-6.3,12.7-6.3h7.2V213z M147.6,205.8V177c-3,0-5.5,1.4-7.6,4.2c-2.1,2.8-3.2,6.2-3.2,10.2c0,4,1.1,7.4,3.2,10.2
		C142.1,204.4,144.7,205.8,147.6,205.8z"/>
	<path class="st0" d="M176.4,195h-10.8v18h-7.2v-32.4c0-6,1.8-11,5.3-15.3c3.5-4.2,7.8-6.3,12.7-6.3v7.2c-3,0-5.5,1.4-7.6,4.2
		c-2.1,2.8-3.2,6.2-3.2,10.2v7.2h10.8V195z"/>
	<path class="st0" d="M201.6,177h-7.2v36h-7.2v-36H180v-7.2h7.2V159h7.2v10.8h7.2V177z"/>
</g>
<path class="st1" d="M180.2,139.7c3.1-7.3,10.3-12.4,18.7-12.4c3.4,0,6.6,0.8,9.4,2.3"/>
<path class="st1" d="M208.1,129.6c4.8-5.7,11.9-9.2,19.9-9.2c9.6,0,17.9,5.2,22.4,12.9"/>
<path class="st1" d="M269.7,139.4c-2.1-4.8-6.8-8.2-12.4-8.2c-2.5,0-4.8,0.7-6.8,1.8"/>
<line class="st2" x1="272.9" y1="140" x2="299.9" y2="140"/>
<line class="st2" x1="138.9" y1="140" x2="177.9" y2="140"/>
<line class="st2" x1="138.9" y1="150" x2="299.9" y2="150"/>
<path class="st1" d="M250.2,133.3"/>
</svg>
